<svg width="167" height="233" viewBox="0 0 167 233" fill="none" xmlns="http://www.w3.org/2000/svg">
    <path d="M36.5919 175.32L41.5416 180.27L23.8639 185.219L28.8137 167.542L33.7634 172.491L36.5919 175.32Z" fill="#FFFEFE"/>
    <path d="M36.5919 175.32L41.5416 180.27L23.8639 185.219L28.8137 167.542L33.7634 172.491M36.5919 175.32L60.6335 151.278L57.8051 148.45L33.7634 172.491M36.5919 175.32L33.7634 172.491M41.5416 180.27L36.5919 175.32L33.7634 172.491L28.8137 167.542L23.8639 185.219L41.5416 180.27Z" stroke="white" stroke-width="4"/>
    <g clip-path="url(#clip0_30_886)">
        <path d="M82.6255 108.123C86.5097 109.927 90.793 111.509 96.0558 112.545C96.9792 107.408 97.7076 101.951 98.1859 96.6219C96.1885 96.1294 93.3995 95.4577 90.5318 94.0645C86.6926 100.308 83.8421 106.055 82.6255 108.123Z" fill="#40E0D0" stroke="#40E0D0" stroke-width="0.6"/>
        <path d="M81.5416 110.066C86.4256 112.462 91.0865 113.96 95.6209 114.729C94.694 119 93.7619 123.277 90.8458 129.983C84.7111 128.666 79.316 126.76 74.6394 124.282C76.701 119.729 78.9818 115.035 81.5416 110.066Z" fill="#006666" stroke="#006666" stroke-width="0.6"/>
        <path d="M97.7939 115.115C102.969 116.006 107.123 115.772 110.728 114.933C110.705 119.307 110.209 123.958 107.929 129.657C103.188 130.873 98.2342 131.07 93.0812 130.316C95.4165 124.948 96.8605 119.931 97.7939 115.115Z" fill="#006666" stroke="#006666" stroke-width="0.6"/>
        <path d="M112.948 114.39C113 119.129 112.384 123.888 110.615 128.683C113.72 127.439 116.953 125.569 119.243 122.811C121.485 117.596 120.964 113.694 120.783 109.79C118.855 111.845 116.108 113.394 112.948 114.39Z" fill="#006666" stroke="#006666" stroke-width="0.6"/>
        <path d="M69.8929 137.373C69.83 138.032 69.708 138.685 69.9367 139.369C73.3285 141.036 77.5264 142.456 81.1646 143.071C82.1315 142.767 82.6356 142.34 83.1664 141.842C79.4634 141.26 74.5049 139.506 69.8929 137.373Z" fill="#40E0D0" stroke="#40E0D0" stroke-width="0.6"/>
        <path d="M49.5376 110.031C49.6487 108.007 50.0127 105.034 51.1928 102.7C52.6151 105.929 54.0881 109.932 57.198 113.58C55.9081 117.18 55.0873 120.408 55.087 122.987C50.694 118.784 49.8499 114.223 49.5376 110.031Z" fill="#40E0D0" stroke="#40E0D0" stroke-width="0.6"/>
        <path d="M51.5264 92.8077C54.046 86.7031 57.1468 82.03 60.9104 79.8323C60.7745 81.9211 60.4194 84.133 61.1657 86.7894C57.5892 89.7109 54.2596 93.3371 51.8488 97.0884C51.3062 95.5518 51.5462 93.2142 51.5264 92.8077Z" fill="#006666" stroke="#006666" stroke-width="0.6"/>
        <path d="M57.5354 128.691C57.5922 129.168 57.8573 129.669 57.837 129.596C60.0889 132.299 62.1879 135.025 67.7329 138.201C67.5949 137.821 67.6746 137.16 67.8672 136.271C63.6599 134.141 60.1535 131.087 57.5354 128.691Z" fill="#40E0D0" stroke="#40E0D0" stroke-width="0.6"/>
        <path d="M85.584 142.283C85.3827 142.596 84.8072 143 84.2482 143.378C87.0822 143.564 89.7505 143.438 92.2848 143.059C90.4833 142.954 88.7609 142.877 85.584 142.283Z" fill="#40E0D0" stroke="#40E0D0" stroke-width="0.6"/>
        <path d="M87.3772 140.326C90.9433 140.984 95.0761 141.025 100.21 140.083C102.883 137.733 105.005 135.084 106.707 132.207C100.814 133.411 96.3106 133.069 92.0902 132.413C90.7461 135.427 89.165 138.048 87.3772 140.326Z" fill="#40E0D0" stroke="#40E0D0" stroke-width="0.6"/>
        <path d="M122.693 107.799C123.126 110.421 123.07 113.154 122.771 116.926C124.008 113.126 124.778 108.733 124.337 102.8C124.12 104.268 123.889 105.51 122.693 107.799Z" fill="#006666" stroke="#006666" stroke-width="0.6"/>
        <path d="M118.124 126.662C114.991 131.839 110.135 136.033 103.856 139.416C105.872 137.52 107.839 135.332 109.525 131.468C112.033 130.689 114.636 129.693 118.124 126.662Z" fill="#40E0D0" stroke="#40E0D0" stroke-width="0.6"/>
        <path d="M57.3379 125.384C60.1177 128.44 63.7488 131.33 68.4359 134.014C69.3166 131.01 70.437 128.11 71.777 125.305C66.6892 122.573 62.4469 119.262 58.9147 115.463C58.0447 118.282 57.037 120.906 57.3379 125.384Z" fill="#40E0D0" stroke="#40E0D0" stroke-width="0.6"/>
        <path d="M73.7344 126.355C72.5504 129.283 71.3143 132.208 70.4323 135.163C75.1209 137.455 79.9022 139.045 84.7812 139.897C86.7785 137.761 88.2936 134.825 89.8639 131.981C83.6555 130.735 78.4851 128.703 73.7344 126.355Z" fill="#40E0D0" stroke="#40E0D0" stroke-width="0.6"/>
        <path d="M52.6028 100.256C55.5944 94.7908 58.6452 91.8783 61.7021 89.2234C62.3451 91.778 63.6932 94.7556 66.9195 98.8597C63.3345 103.145 60.6212 107.292 58.3215 111.373C54.5474 106.543 53.1988 103.173 52.6028 100.256Z" fill="#006666" stroke="#006666" stroke-width="0.6"/>
        <path d="M68.5689 100.429C70.8648 103.157 73.838 105.964 79.5337 109.084C77.1842 113.517 74.8611 118.095 72.639 123.23C67.047 120.039 63.0423 116.673 59.8513 113.217C62.823 107.791 65.7107 103.849 68.5689 100.429Z" fill="#006666" stroke="#006666" stroke-width="0.6"/>
        <path d="M80.6023 107.099C83.1528 102.474 85.559 98.1021 88.5511 93.1626C86.6745 92.0311 84.3287 90.5347 82.0218 88.1382C74.9353 93.3927 73.2008 95.6728 70.0405 98.7407C72.0121 101.108 74.4842 103.61 80.6023 107.099Z" fill="#40E0D0" stroke="#40E0D0" stroke-width="0.6"/>
        <path d="M83.8376 86.5987C85.5046 88.2775 86.6823 89.3011 89.7873 91.1687C91.2029 88.7581 93.0063 86.4784 94.9584 83.3315C93.3406 82.2645 93.3315 82.1141 92.7728 81.4896C89.5026 83.098 86.2386 84.8232 83.8376 86.5987Z" fill="#40E0D0" stroke="#40E0D0" stroke-width="0.6"/>
        <path d="M85.579 69.5309C84.5219 69.045 83.1382 68.9336 81.9244 68.8076C86.8766 68.3005 90.8794 68.5441 93.5663 69.2318C90.8563 69.1779 88.2296 68.7426 85.579 69.5309Z" fill="#40E0D0" stroke="#40E0D0" stroke-width="0.6"/>
        <path d="M91.484 92.0653L96.0501 83.9258C97.0468 84.4639 97.5532 84.5071 98.669 84.7723C98.7625 89.1731 98.5233 91.8441 98.469 94.3506C95.3151 93.5098 93.2769 93.0679 91.484 92.0653Z" fill="#40E0D0" stroke="#40E0D0" stroke-width="0.6"/>
        <path d="M68.5093 97.1818C71.5254 93.8427 74.4936 91.006 80.5354 86.4762C79.1102 84.6904 78.1719 82.613 77.6013 81.0893C70.856 82.8886 67.5047 84.9091 63.5869 87.7137C64.4056 90.7847 65.7183 93.9068 68.5093 97.1818Z" fill="#40E0D0" stroke="#40E0D0" stroke-width="0.6"/>
        <path d="M64.8925 75.5957C67.8794 74.2597 72.6634 72.1581 79.552 72.4717C80.6498 71.2451 82.3169 70.6481 83.9209 69.956C82.0086 69.4545 81.1489 69.3715 77.9329 69.6105C70.2746 71.9193 67.1913 73.8506 64.8925 75.5957Z" fill="#40E0D0" stroke="#40E0D0" stroke-width="0.6"/>
        <path d="M63.5984 78.3803C62.9737 80.3998 62.9662 82.8584 63.2973 85.1826C67.4177 82.6214 70.0468 80.2138 77.5012 78.7763C77.3092 77.0352 77.9764 75.2936 78.3813 74.1269C72.0929 74.5671 67.5827 75.7547 63.5984 78.3803Z" fill="#40E0D0" stroke="#40E0D0" stroke-width="0.6"/>
        <path d="M100.404 97.1444C99.9736 102.134 99.3079 107.413 98.3232 112.924C102.653 113.594 106.82 113.649 110.698 112.604C110.212 107.22 109.606 101.789 107.84 96.6071C106.35 96.8521 103.393 97.6028 100.404 97.1444Z" fill="#40E0D0" stroke="#40E0D0" stroke-width="0.6"/>
        <path d="M112.869 112.034C116.375 110.788 118.736 109.108 120.182 107.08C119.47 102.82 117.456 97.4573 114.393 92.8335C113.146 94.0002 111.462 95.4064 109.691 96.0207C111.692 102.15 112.655 107.544 112.869 112.034Z" fill="#40E0D0" stroke="#40E0D0" stroke-width="0.6"/>
        <path d="M121.843 103.924C120.584 99.7642 118.388 95.2144 115.356 91.3738C116.093 89.9464 116.01 87.533 115.96 86.415C118.881 89.3492 122.616 93.2515 123.247 99.4745C123.21 100.503 122.535 102.637 121.843 103.924Z" fill="#40E0D0" stroke="#40E0D0" stroke-width="0.6"/>
        <path d="M100.493 94.777C104.123 95.0387 105.41 94.7755 107.041 94.5895C105.855 91.0984 104.374 87.7841 102.45 84.7348C101.826 84.95 101.02 85.0037 100.162 85.0097C100.383 87.7906 100.525 90.9135 100.493 94.777Z" fill="#40E0D0" stroke="#40E0D0" stroke-width="0.6"/>
        <path d="M121.698 92.0353C120.457 89.6601 118.323 87.2103 115.887 85.0785C115.346 82.9491 114.311 81.4777 113.144 79.8152C114.456 80.981 115.746 82.2314 117.453 84.206C119.008 86.5889 120.509 89.0586 121.698 92.0353Z" fill="#40E0D0" stroke="#40E0D0" stroke-width="0.6"/>
        <path d="M114.199 84.349C113.978 82.9071 112.791 81.0193 110.783 78.7536C108.733 78.26 106.649 78.0346 104.283 78.2683C104.62 78.877 105.001 79.5247 105.114 79.9323C108.475 80.7972 111.497 82.4692 114.199 84.349Z" fill="#40E0D0" stroke="#40E0D0" stroke-width="0.6"/>
        <path d="M103.463 77.4247C105.81 77.1727 107.98 77.3271 110.008 77.807C108.654 76.4957 106.526 75.0297 103.767 73.4372C102.906 74.1758 102.029 74.8957 101.306 75.7991C102.064 76.2529 102.823 76.7033 103.463 77.4247Z" fill="#40E0D0" stroke="#40E0D0" stroke-width="0.6"/>
        <path d="M108.877 94.0375C107.48 90.3532 105.479 87.2386 103.462 84.4789C103.997 84.1308 104.55 83.799 104.857 83.2471C107.897 85.761 110.831 88.274 113.03 91.2654C111.662 92.8313 110.606 93.3841 108.877 94.0375Z" fill="#40E0D0" stroke="#40E0D0" stroke-width="0.6"/>
        <path d="M105.435 80.8867C105.512 81.3681 105.546 81.8774 105.324 82.5516C108.601 84.9688 111.697 87.2297 113.923 90.0609C114.746 88.5478 114.642 86.4808 114.446 85.475C110.537 82.6852 108.025 81.8409 105.435 80.8867Z" fill="#40E0D0" stroke="#40E0D0" stroke-width="0.6"/>
        <path d="M82.5476 85.1439C87.486 82.3394 89.3464 81.6778 91.9293 80.5133C91.4752 79.7438 91.2575 79.1378 91.2227 78.6582C88.2285 78.6581 85.1421 78.7274 80.0796 80.2846C80.3605 81.6702 81.2576 83.3221 82.5476 85.1439Z" fill="#40E0D0" stroke="#40E0D0" stroke-width="0.6"/>
        <path d="M79.7427 78.4263C83.7455 77.6916 87.4937 77.7299 91.1427 77.808C91.2373 77.0807 91.4332 76.5288 91.722 76.1011C87.9044 75.0616 84.2225 74.2467 80.5056 74.2295C80.146 75.354 79.6374 76.6827 79.7427 78.4263Z" fill="#40E0D0" stroke="#40E0D0" stroke-width="0.6"/>
        <path d="M102.936 72.9964C102.209 73.6319 101.545 74.1233 100.514 75.4567C99.9787 75.1068 99.2373 74.7939 97.9942 74.5713C97.4007 72.7655 96.6298 71.6047 95.8531 70.465C98.317 70.9341 100.658 71.8485 102.936 72.9964Z" fill="#40E0D0" stroke="#40E0D0" stroke-width="0.6"/>
        <path d="M92.2767 75.4845L93.6951 74.6704C90.6836 72.4119 88.507 71.6283 86.2101 70.6193C84.654 71.276 83.064 71.7746 81.5807 72.9816C85.9712 73.1624 89.1997 74.2634 92.2767 75.4845Z" fill="#40E0D0" stroke="#40E0D0" stroke-width="0.6"/>
        <path d="M94.7953 74.4934C95.8464 74.3041 96.4485 74.3697 97.078 74.4199C96.5224 72.97 95.7194 71.6174 94.7693 70.3227C92.0805 69.7262 89.7551 69.8935 87.5182 70.2468C89.8217 71.2145 92.1604 72.3112 94.7953 74.4934Z" fill="#40E0D0" stroke="#40E0D0" stroke-width="0.6"/>
    </g>
    <path d="M138.32 172.491L143.27 167.542L148.219 185.219L130.542 180.27L135.491 175.32L138.32 172.491Z" fill="white"/>
    <path d="M138.32 172.491L143.27 167.542L148.219 185.219L130.542 180.27L135.491 175.32M138.32 172.491L135.491 175.32M138.32 172.491L126.299 160.471L114.278 148.45L111.45 151.278L123.471 163.299L135.491 175.32" stroke="white" stroke-width="4"/>
    <path d="M84.5 27.5H77.5L86.5 11.5L95.5 27.5H88.5H84.5Z" fill="white"/>
    <path d="M84.5 27.5H77.5L86.5 11.5L95.5 27.5H88.5M84.5 27.5V61.5H88.5V27.5M84.5 27.5H88.5M77.5 27.5H84.5H88.5H95.5L86.5 11.5L77.5 27.5Z" stroke="#FFFEFE" stroke-width="4"/>
    <defs>
        <clipPath id="clip0_30_886">
            <rect width="75" height="75" fill="white" transform="translate(49.5 68.5)"/>
        </clipPath>
    </defs>
</svg>