<svg width="62" height="77" viewBox="0 0 62 77" fill="none" xmlns="http://www.w3.org/2000/svg">
<path d="M13.1919 63.2054L14.9764 64.9898L8.60331 66.7743L10.3878 60.4012L12.1722 62.1857L13.1919 63.2054Z" fill="black"/>
<path d="M13.1919 63.2054L14.9764 64.9898L8.60331 66.7743L10.3878 60.4012L12.1722 62.1857M13.1919 63.2054L21.8593 54.538L20.8396 53.5183L12.1722 62.1857M13.1919 63.2054L12.1722 62.1857M14.9764 64.9898L13.1919 63.2054L12.1722 62.1857L10.3878 60.4012L8.60331 66.7743L14.9764 64.9898Z" stroke="black" stroke-width="1.44206"/>
<g clip-path="url(#clip0_103_1207)">
<path d="M29.7878 38.98C31.1881 39.6303 32.7322 40.2006 34.6296 40.574C34.9625 38.7223 35.2251 36.7547 35.3975 34.8336C34.6774 34.6561 33.6719 34.4139 32.6381 33.9117C31.254 36.1627 30.2264 38.2346 29.7878 38.98Z" fill="#40E0D0" stroke="#40E0D0" stroke-width="0.216309"/>
<path d="M29.3969 39.6805C31.1577 40.5441 32.838 41.0844 34.4727 41.3615C34.1386 42.9012 33.8025 44.4433 32.7513 46.8607C30.5396 46.3861 28.5946 45.699 26.9086 44.8055C27.6518 43.1641 28.4741 41.472 29.3969 39.6805Z" fill="#006666" stroke="#006666" stroke-width="0.216309"/>
<path d="M35.2561 41.5005C37.1218 41.8219 38.6194 41.7375 39.9192 41.4351C39.9106 43.0119 39.7321 44.6886 38.9102 46.7433C37.2009 47.1818 35.4149 47.2529 33.5571 46.9809C34.3991 45.0457 34.9196 43.2369 35.2561 41.5005Z" fill="#006666" stroke="#006666" stroke-width="0.216309"/>
<path d="M40.7196 41.2394C40.738 42.9479 40.516 44.6637 39.8784 46.3921C40.9978 45.9436 42.1633 45.2694 42.9887 44.2752C43.7972 42.395 43.6095 40.9884 43.5442 39.581C42.8489 40.322 41.8585 40.8801 40.7196 41.2394Z" fill="#006666" stroke="#006666" stroke-width="0.216309"/>
<path d="M25.1975 49.5251C25.1748 49.7625 25.1308 49.9981 25.2132 50.2447C26.436 50.8455 27.9494 51.3575 29.2611 51.5792C29.6097 51.4696 29.7914 51.3155 29.9827 51.1362C28.6477 50.9264 26.8601 50.2938 25.1975 49.5251Z" fill="#40E0D0" stroke="#40E0D0" stroke-width="0.216309"/>
<path d="M17.859 39.6678C17.8991 38.9382 18.0303 37.8663 18.4558 37.0248C18.9685 38.1889 19.4996 39.632 20.6207 40.9471C20.1557 42.245 19.8598 43.4089 19.8597 44.3385C18.2759 42.8235 17.9716 41.179 17.859 39.6678Z" fill="#40E0D0" stroke="#40E0D0" stroke-width="0.216309"/>
<path d="M18.576 33.4586C19.4844 31.2578 20.6022 29.5731 21.9591 28.7808C21.9101 29.5338 21.7821 30.3312 22.0511 31.2889C20.7618 32.3421 19.5614 33.6495 18.6923 35.0019C18.4966 34.4479 18.5832 33.6052 18.576 33.4586Z" fill="#006666" stroke="#006666" stroke-width="0.216309"/>
<path d="M20.7423 46.395C20.7628 46.567 20.8584 46.7475 20.8511 46.7213C21.6629 47.6959 22.4196 48.6786 24.4187 49.8236C24.3689 49.6866 24.3977 49.4483 24.4671 49.1279C22.9503 48.3599 21.6862 47.2587 20.7423 46.395Z" fill="#40E0D0" stroke="#40E0D0" stroke-width="0.216309"/>
<path d="M30.8543 51.2952C30.7818 51.4079 30.5743 51.5536 30.3727 51.6898C31.3945 51.7569 32.3564 51.7114 33.2701 51.575C32.6206 51.5371 31.9996 51.5094 30.8543 51.2952Z" fill="#40E0D0" stroke="#40E0D0" stroke-width="0.216309"/>
<path d="M31.5008 50.5897C32.7864 50.8269 34.2764 50.8417 36.1272 50.5019C37.0907 49.6549 37.8558 48.6999 38.4696 47.6626C36.3449 48.0965 34.7214 47.9734 33.1999 47.737C32.7153 48.8234 32.1453 49.7683 31.5008 50.5897Z" fill="#40E0D0" stroke="#40E0D0" stroke-width="0.216309"/>
<path d="M44.2327 38.863C44.3888 39.8084 44.3684 40.7935 44.2608 42.1536C44.7068 40.7836 44.9845 39.1998 44.8253 37.0609C44.7471 37.5901 44.6639 38.0379 44.2327 38.863Z" fill="#006666" stroke="#006666" stroke-width="0.216309"/>
<path d="M42.5855 45.6635C41.4561 47.53 39.7053 49.042 37.4416 50.2615C38.1683 49.5782 38.8774 48.7893 39.4855 47.3961C40.3896 47.1154 41.3279 46.7562 42.5855 45.6635Z" fill="#40E0D0" stroke="#40E0D0" stroke-width="0.216309"/>
<path d="M20.6712 45.2028C21.6734 46.3045 22.9824 47.3464 24.6722 48.3142C24.9897 47.2312 25.3936 46.1856 25.8767 45.1742C24.0425 44.1894 22.5131 42.9956 21.2397 41.6261C20.926 42.6424 20.5627 43.5884 20.6712 45.2028Z" fill="#40E0D0" stroke="#40E0D0" stroke-width="0.216309"/>
<path d="M26.5824 45.5527C26.1555 46.6086 25.7099 47.6628 25.3919 48.7282C27.0822 49.5545 28.8059 50.1279 30.5649 50.435C31.2849 49.6649 31.8312 48.6065 32.3973 47.5811C30.159 47.1318 28.295 46.3995 26.5824 45.5527Z" fill="#40E0D0" stroke="#40E0D0" stroke-width="0.216309"/>
<path d="M18.9641 36.1438C20.0426 34.1735 21.1425 33.1235 22.2445 32.1664C22.4763 33.0874 22.9623 34.1608 24.1255 35.6404C22.833 37.1852 21.8548 38.6803 21.0257 40.1517C19.6652 38.4103 19.1789 37.1953 18.9641 36.1438Z" fill="#006666" stroke="#006666" stroke-width="0.216309"/>
<path d="M24.7202 36.2062C25.5479 37.1898 26.6198 38.2015 28.6731 39.3262C27.8261 40.9244 26.9886 42.5751 26.1875 44.4264C24.1715 43.2758 22.7277 42.0623 21.5773 40.8165C22.6487 38.8604 23.6897 37.4391 24.7202 36.2062Z" fill="#006666" stroke="#006666" stroke-width="0.216309"/>
<path d="M29.0583 38.6107C29.9778 36.9434 30.8453 35.3673 31.924 33.5865C31.2474 33.1786 30.4017 32.6391 29.5701 31.7751C27.0153 33.6695 26.39 34.4915 25.2506 35.5975C25.9614 36.4508 26.8526 37.3529 29.0583 38.6107Z" fill="#40E0D0" stroke="#40E0D0" stroke-width="0.216309"/>
<path d="M30.2247 31.2201C30.8257 31.8254 31.2503 32.1944 32.3697 32.8677C32.88 31.9986 33.5302 31.1768 34.2339 30.0423C33.6507 29.6576 33.6474 29.6034 33.446 29.3782C32.267 29.9581 31.0903 30.5801 30.2247 31.2201Z" fill="#40E0D0" stroke="#40E0D0" stroke-width="0.216309"/>
<path d="M30.8525 25.0669C30.4714 24.8917 29.9726 24.8516 29.535 24.8061C31.3203 24.6233 32.7634 24.7111 33.7321 24.9591C32.7551 24.9396 31.8081 24.7827 30.8525 25.0669Z" fill="#40E0D0" stroke="#40E0D0" stroke-width="0.216309"/>
<path d="M32.9814 33.1909L34.6275 30.2565C34.9868 30.4505 35.1694 30.4661 35.5716 30.5617C35.6054 32.1483 35.5191 33.1112 35.4996 34.0148C34.3625 33.7117 33.6277 33.5524 32.9814 33.1909Z" fill="#40E0D0" stroke="#40E0D0" stroke-width="0.216309"/>
<path d="M24.6986 35.0355C25.786 33.8317 26.8561 32.809 29.0342 31.176C28.5204 30.5321 28.1822 29.7832 27.9765 29.2339C25.5447 29.8826 24.3365 30.611 22.924 31.6221C23.2192 32.7292 23.6924 33.8548 24.6986 35.0355Z" fill="#40E0D0" stroke="#40E0D0" stroke-width="0.216309"/>
<path d="M23.3947 27.2534C24.4715 26.7718 26.1962 26.0141 28.6797 26.1271C29.0754 25.6849 29.6764 25.4697 30.2547 25.2202C29.5653 25.0394 29.2554 25.0095 28.096 25.0956C25.335 25.928 24.2234 26.6242 23.3947 27.2534Z" fill="#40E0D0" stroke="#40E0D0" stroke-width="0.216309"/>
<path d="M22.9282 28.2573C22.703 28.9853 22.7003 29.8717 22.8197 30.7096C24.3051 29.7863 25.253 28.9183 27.9404 28.4001C27.8712 27.7724 28.1117 27.1445 28.2577 26.7239C25.9906 26.8826 24.3646 27.3107 22.9282 28.2573Z" fill="#40E0D0" stroke="#40E0D0" stroke-width="0.216309"/>
<path d="M36.1971 35.022C36.042 36.8208 35.802 38.7239 35.447 40.7107C37.0079 40.9525 38.5102 40.9721 39.9082 40.5956C39.7329 38.6546 39.5146 36.6963 38.878 34.8283C38.3408 34.9167 37.2748 35.1873 36.1971 35.022Z" fill="#40E0D0" stroke="#40E0D0" stroke-width="0.216309"/>
<path d="M40.6911 40.39C41.9549 39.9408 42.8062 39.3351 43.3274 38.604C43.0708 37.0683 42.3447 35.1348 41.2405 33.4679C40.7909 33.8885 40.1836 34.3954 39.5453 34.6169C40.2667 36.8265 40.6138 38.7712 40.6911 40.39Z" fill="#40E0D0" stroke="#40E0D0" stroke-width="0.216309"/>
<path d="M43.926 37.4661C43.4722 35.9665 42.6804 34.3262 41.5876 32.9416C41.8531 32.427 41.8232 31.5569 41.8052 31.1539C42.8584 32.2117 44.2049 33.6185 44.4325 35.862C44.4192 36.233 44.1757 37.0021 43.926 37.4661Z" fill="#40E0D0" stroke="#40E0D0" stroke-width="0.216309"/>
<path d="M36.2293 34.1685C37.538 34.2628 38.0017 34.168 38.5897 34.1009C38.1622 32.8423 37.6282 31.6475 36.9348 30.5482C36.7096 30.6257 36.4193 30.6451 36.1098 30.6473C36.1897 31.6498 36.2408 32.7756 36.2293 34.1685Z" fill="#40E0D0" stroke="#40E0D0" stroke-width="0.216309"/>
<path d="M43.8738 33.1801C43.4265 32.3239 42.6572 31.4407 41.7789 30.6721C41.5839 29.9044 41.2109 29.374 40.7903 28.7746C41.2633 29.1949 41.7283 29.6457 42.3437 30.3576C42.9042 31.2166 43.4454 32.107 43.8738 33.1801Z" fill="#40E0D0" stroke="#40E0D0" stroke-width="0.216309"/>
<path d="M41.1705 30.409C41.091 29.8892 40.6628 29.2086 39.9389 28.3918C39.2 28.2139 38.4486 28.1326 37.5956 28.2169C37.7172 28.4363 37.8545 28.6698 37.895 28.8168C39.107 29.1286 40.1962 29.7313 41.1705 30.409Z" fill="#40E0D0" stroke="#40E0D0" stroke-width="0.216309"/>
<path d="M37.3001 27.9128C38.1461 27.8219 38.9284 27.8776 39.6596 28.0506C39.1713 27.5779 38.4043 27.0493 37.4095 26.4752C37.099 26.7415 36.7829 27.001 36.5225 27.3267C36.7955 27.4903 37.069 27.6527 37.3001 27.9128Z" fill="#40E0D0" stroke="#40E0D0" stroke-width="0.216309"/>
<path d="M39.2517 33.9019C38.7481 32.5737 38.0267 31.4509 37.2996 30.4559C37.4925 30.3305 37.692 30.2108 37.8027 30.0118C38.8984 30.9182 39.9564 31.8241 40.749 32.9026C40.2559 33.4671 39.8752 33.6664 39.2517 33.9019Z" fill="#40E0D0" stroke="#40E0D0" stroke-width="0.216309"/>
<path d="M38.0108 29.1609C38.0387 29.3344 38.0509 29.518 37.9708 29.7611C39.1523 30.6325 40.2685 31.4476 41.0708 32.4683C41.3675 31.9228 41.33 31.1776 41.2593 30.815C39.8502 29.8093 38.9447 29.5049 38.0108 29.1609Z" fill="#40E0D0" stroke="#40E0D0" stroke-width="0.216309"/>
<path d="M29.7596 30.6957C31.54 29.6846 32.2107 29.4461 33.1419 29.0263C32.9782 28.7489 32.8997 28.5304 32.8871 28.3575C31.8077 28.3574 30.695 28.3824 28.8699 28.9438C28.9711 29.4433 29.2946 30.0389 29.7596 30.6957Z" fill="#40E0D0" stroke="#40E0D0" stroke-width="0.216309"/>
<path d="M28.7484 28.2739C30.1915 28.009 31.5428 28.0228 32.8583 28.051C32.8924 27.7888 32.963 27.5898 33.0671 27.4356C31.6908 27.0608 30.3635 26.7671 29.0234 26.7609C28.8938 27.1662 28.7104 27.6453 28.7484 28.2739Z" fill="#40E0D0" stroke="#40E0D0" stroke-width="0.216309"/>
<path d="M37.1098 26.3163C36.8478 26.5454 36.6084 26.7226 36.2369 27.2033C36.0438 27.0771 35.7765 26.9643 35.3284 26.8841C35.1144 26.233 34.8365 25.8146 34.5565 25.4037C35.4447 25.5728 36.2889 25.9025 37.1098 26.3163Z" fill="#40E0D0" stroke="#40E0D0" stroke-width="0.216309"/>
<path d="M33.2672 27.2133L33.7785 26.9198C32.6928 26.1056 31.9081 25.8231 31.0801 25.4594C30.519 25.6961 29.9458 25.8759 29.4111 26.311C30.9939 26.3762 32.1578 26.7731 33.2672 27.2133Z" fill="#40E0D0" stroke="#40E0D0" stroke-width="0.216309"/>
<path d="M34.1751 26.856C34.554 26.7878 34.7711 26.8114 34.9981 26.8295C34.7977 26.3068 34.5083 25.8192 34.1657 25.3524C33.1964 25.1374 32.358 25.1977 31.5516 25.325C32.3821 25.6739 33.2252 26.0693 34.1751 26.856Z" fill="#40E0D0" stroke="#40E0D0" stroke-width="0.216309"/>
</g>
<path d="M49.8664 62.1857L51.6508 60.4013L53.4353 66.7743L47.0622 64.9899L48.8467 63.2054L49.8664 62.1857Z" fill="black"/>
<path d="M49.8664 62.1857L51.6508 60.4013L53.4353 66.7743L47.0622 64.9899L48.8467 63.2054M49.8664 62.1857L48.8467 63.2054M49.8664 62.1857L45.5327 57.8521L41.199 53.5184L40.1793 54.5381L44.513 58.8717L48.8467 63.2054" stroke="black" stroke-width="1.44206"/>
<path d="M30.4635 9.91418H27.9399L31.1845 4.14594L34.4292 9.91418H31.9056H30.4635Z" fill="black"/>
<path d="M30.4635 9.91418H27.9399L31.1845 4.14594L34.4292 9.91418H31.9056M30.4635 9.91418V22.1717H31.9056V9.91418M30.4635 9.91418H31.9056M27.9399 9.91418H30.4635H31.9056H34.4292L31.1845 4.14594L27.9399 9.91418Z" stroke="black" stroke-width="1.44206"/>
<defs>
<clipPath id="clip0_103_1207">
<rect width="27.0386" height="27.0386" fill="white" transform="translate(17.8455 24.6953)"/>
</clipPath>
</defs>
</svg>
